<svg width="143" height="32" viewBox="0 0 143 32" fill="none" xmlns="http://www.w3.org/2000/svg">
  <path d="M4.17612 22V13.12H0.224121V10.32H11.5521V13.12H7.60012V22H4.17612Z" fill="#010032" />
  <path
    d="M20.725 22C20.421 21.44 20.309 20.4 20.229 19.6C20.133 18.544 19.685 18.24 18.597 18.24H16.421V22H12.997V10.32H20.085C22.709 10.32 24.053 11.584 24.053 13.712C24.053 16.192 22.213 16.688 21.301 16.752V16.816C22.341 16.896 23.301 17.344 23.605 19.2C23.765 20.208 23.973 21.472 24.549 22H20.725ZM16.421 15.536H18.981C19.813 15.536 20.549 15.216 20.549 14.304C20.549 13.584 20.085 13.12 19.125 13.12H16.421V15.536Z"
    fill="#010032" />
  <path d="M26.0945 22V10.32H29.5185V22H26.0945Z" fill="#010032" />
  <path
    d="M31.7701 22V10.32H37.9141C40.9861 10.32 42.8101 11.792 42.8101 14.464C42.8101 17.216 40.9861 18.72 37.8981 18.72H35.1941V22H31.7701ZM35.1941 15.968H37.4981C38.5861 15.968 39.3701 15.616 39.3701 14.528C39.3701 13.488 38.5861 13.12 37.5301 13.12H35.1941V15.968Z"
    fill="#010032" />
  <path d="M52.398 22V13.12H48.446V10.32H59.774V13.12H55.822V22H52.398Z" fill="#010032" />
  <path
    d="M89.6794 16.944C89.6794 20.8 87.4394 22.192 84.3834 22.192C81.0714 22.192 79.6634 20.256 79.5034 17.328L82.7034 17.056C82.7834 18.8 83.4554 19.424 84.5114 19.424C85.6794 19.424 86.2394 18.72 86.2394 17.312V10.32H89.6794V16.944Z"
    fill="#010032" />
  <path
    d="M99.9528 22L99.1208 19.712H94.4007L93.5368 22H90.0967L94.6888 10.32H98.9928L103.633 22H99.9528ZM95.3447 17.2H98.1927L96.8327 13.488H96.7367L95.3447 17.2Z"
    fill="#010032" />
  <path
    d="M104.874 22V10.32H111.018C114.09 10.32 115.914 11.792 115.914 14.464C115.914 17.216 114.09 18.72 111.002 18.72H108.298V22H104.874ZM108.298 15.968H110.602C111.69 15.968 112.474 15.616 112.474 14.528C112.474 13.488 111.69 13.12 110.634 13.12H108.298V15.968Z"
    fill="#010032" />
  <path
    d="M125.273 22L124.441 19.712H119.721L118.857 22H115.417L120.009 10.32H124.313L128.953 22H125.273ZM120.665 17.2H123.513L122.153 13.488H122.057L120.665 17.2Z"
    fill="#010032" />
  <path
    d="M138.658 10.32H141.826V22H137.954L134.146 16.064L133.362 14.752V22H130.194V10.32H134.05L137.811 16.272L138.658 17.696V10.32Z"
    fill="#010032" />
  <path
    d="M67 22C63.4444 22 61 19.5968 61 16C61 12.4032 63.4444 10 67 10C70.5556 10 73 12.4032 73 16C73 19.5968 70.5556 22 67 22Z"
    fill="#F40D1C" />
</svg>
